G75*
%MOIN*%
%OFA0B0*%
%FSLAX25Y25*%
%IPPOS*%
%LPD*%
%AMOC8*
5,1,8,0,0,1.08239X$1,22.5*
%
%ADD10R,0.05131X0.04737*%
%ADD11R,0.04737X0.05131*%
%ADD12C,0.05950*%
%ADD13C,0.07591*%
%ADD14OC8,0.06400*%
%ADD15R,0.03162X0.18517*%
%ADD16C,0.08200*%
D10*
X0040509Y0064192D03*
X0047202Y0064192D03*
X0069705Y0060426D03*
X0076398Y0060426D03*
X0114410Y0123567D03*
X0121103Y0123567D03*
X0163053Y0131597D03*
X0169746Y0131597D03*
X0170294Y0151776D03*
X0163601Y0151776D03*
X0163567Y0159829D03*
X0163591Y0167878D03*
X0170283Y0167878D03*
X0170260Y0159829D03*
X0178419Y0098942D03*
X0185112Y0098942D03*
X0185072Y0090662D03*
X0178379Y0090662D03*
D11*
X0157676Y0110638D03*
X0157676Y0117331D03*
X0164477Y0138302D03*
X0164477Y0144995D03*
X0161161Y0176649D03*
X0161161Y0183342D03*
X0152710Y0183355D03*
X0152710Y0176662D03*
X0112418Y0177090D03*
X0112418Y0183783D03*
X0103742Y0127381D03*
X0103742Y0120688D03*
D12*
X0041499Y0269190D03*
X0021814Y0269190D03*
D13*
X0017493Y0279820D03*
X0045820Y0279820D03*
D14*
X0075893Y0181936D03*
X0075893Y0171936D03*
X0075893Y0161936D03*
X0075893Y0151936D03*
X0075893Y0141936D03*
X0075893Y0131936D03*
X0075893Y0121936D03*
X0075893Y0111936D03*
X0085893Y0111936D03*
X0085893Y0121936D03*
X0085893Y0131936D03*
X0085893Y0141936D03*
X0085893Y0151936D03*
X0085893Y0161936D03*
X0085893Y0171936D03*
X0085893Y0181936D03*
X0099043Y0098786D03*
X0109043Y0098786D03*
X0109043Y0088786D03*
X0099043Y0088786D03*
X0119043Y0088786D03*
X0129043Y0088786D03*
X0139043Y0088786D03*
X0149043Y0088786D03*
X0159043Y0088786D03*
X0169043Y0088786D03*
X0169043Y0098786D03*
X0159043Y0098786D03*
X0149043Y0098786D03*
X0139043Y0098786D03*
X0129043Y0098786D03*
X0119043Y0098786D03*
X0182192Y0111936D03*
X0182192Y0121936D03*
X0192192Y0121936D03*
X0192192Y0111936D03*
X0192192Y0131936D03*
X0182192Y0131936D03*
X0182192Y0141936D03*
X0192192Y0141936D03*
X0192192Y0151936D03*
X0182192Y0151936D03*
X0182192Y0161936D03*
X0192192Y0161936D03*
X0192192Y0171936D03*
X0182192Y0171936D03*
X0182192Y0181936D03*
X0192192Y0181936D03*
D15*
X0022408Y0014449D03*
X0025558Y0014449D03*
X0028707Y0014449D03*
X0031857Y0014449D03*
X0035007Y0014449D03*
X0038156Y0014449D03*
X0041306Y0014449D03*
X0044455Y0014449D03*
X0047605Y0014449D03*
X0050755Y0014449D03*
X0053904Y0014449D03*
X0057054Y0014449D03*
X0060203Y0014449D03*
X0063353Y0014449D03*
X0066503Y0014449D03*
X0069652Y0014449D03*
X0072802Y0014449D03*
X0075951Y0014449D03*
X0079101Y0014449D03*
X0082251Y0014449D03*
X0085400Y0014449D03*
X0088550Y0014449D03*
X0091699Y0014449D03*
X0094849Y0014449D03*
X0097999Y0014449D03*
X0101148Y0014449D03*
X0104298Y0014449D03*
X0107447Y0014449D03*
X0110597Y0014449D03*
X0113747Y0014449D03*
X0116896Y0014449D03*
X0120046Y0014449D03*
X0135794Y0014449D03*
X0138944Y0014449D03*
X0142093Y0014449D03*
X0145243Y0014449D03*
X0148392Y0014449D03*
X0151542Y0014449D03*
X0154692Y0014449D03*
X0157841Y0014449D03*
X0160991Y0014449D03*
X0164140Y0014449D03*
X0167290Y0014449D03*
X0170440Y0014449D03*
X0173589Y0014449D03*
X0176739Y0014449D03*
X0179888Y0014449D03*
X0183038Y0014449D03*
X0186188Y0014449D03*
X0189337Y0014449D03*
X0192487Y0014449D03*
X0195636Y0014449D03*
X0198786Y0014449D03*
X0201936Y0014449D03*
X0205085Y0014449D03*
X0208235Y0014449D03*
X0211384Y0014449D03*
X0214534Y0014449D03*
X0217684Y0014449D03*
X0220833Y0014449D03*
D16*
X0145100Y0203118D03*
X0135100Y0203118D03*
X0125100Y0203118D03*
X0115100Y0203118D03*
X0105100Y0203118D03*
X0095100Y0203118D03*
X0085100Y0203118D03*
M02*
